<svg xmlns="http://www.w3.org/2000/svg" width="143" height="48" viewBox="0 0 143 48" role="img" aria-label="Ansible">
  <title>Ansible</title>
  <rect width="143" height="48" rx="24" fill="#F1F3F5"/>
  <svg x="15" y="9" width="30" height="30" viewBox="0 0 24 24" fill="#1F2933">
    <path d="M10.617 11.473l4.686 3.695-3.102-7.662zM12 0C5.371 0 0 5.371 0 12s5.371 12 12 12 12-5.371 12-12S18.629 0 12 0zm5.797 17.305c-.011.471-.403.842-.875.83-.236 0-.416-.09-.664-.293l-6.19-5-2.079 5.203H6.191L11.438 5.44c.124-.314.427-.52.764-.506.326-.014.63.189.742.506l4.774 11.494c.045.111.08.234.08.348-.001.009-.001.009-.001.023z"/>
  </svg>
  <path d="M63.38 17.02L68.02 30.98L65.28 30.98L64.16 27.42L59.2 27.42L58.1 30.98L55.42 30.98L60.1 17.02L63.38 17.02ZM59.84 25.16L63.52 25.16L62.38 21.64L61.72 19.42L61.62 19.42L60.96 21.64L59.84 25.16ZM72.48 24.08L72.48 30.98L69.92 30.98L69.92 20.54L72.48 20.54L72.48 22.28L72.58 22.28Q72.9 21.44 73.59 20.87Q74.28 20.3 75.5 20.3L75.5 20.3Q77.1 20.3 77.97 21.37Q78.84 22.44 78.84 24.38L78.84 24.38L78.84 30.98L76.28 30.98L76.28 24.64Q76.28 23.54 75.88 22.97Q75.48 22.4 74.56 22.4L74.56 22.4Q74.04 22.4 73.56 22.59Q73.08 22.78 72.78 23.15Q72.48 23.52 72.48 24.08L72.48 24.08ZM85.1 31.22L85.1 31.22Q83.6 31.22 82.58 30.71Q81.56 30.2 80.78 29.3L80.78 29.3L82.34 27.78Q82.92 28.44 83.61 28.82Q84.3 29.2 85.2 29.2L85.2 29.2Q86.12 29.2 86.53 28.88Q86.94 28.56 86.94 28L86.94 28Q86.94 27.54 86.65 27.27Q86.36 27 85.66 26.9L85.66 26.9L84.62 26.76Q83.5 26.62 82.72 26.24Q81.94 25.86 81.54 25.2Q81.14 24.54 81.14 23.6L81.14 23.6Q81.14 22.08 82.23 21.19Q83.32 20.3 85.1 20.3L85.1 20.3Q86.12 20.3 86.85 20.49Q87.58 20.68 88.14 21.05Q88.7 21.42 89.18 21.94L89.18 21.94L87.68 23.44Q87.22 22.96 86.58 22.64Q85.94 22.32 85.18 22.32L85.18 22.32Q84.38 22.32 83.99 22.61Q83.6 22.9 83.6 23.4L83.6 23.4Q83.6 23.92 83.91 24.19Q84.22 24.46 84.96 24.58L84.96 24.58L86.02 24.72Q87.74 24.96 88.57 25.73Q89.4 26.5 89.4 27.8L89.4 27.8Q89.4 28.8 88.87 29.58Q88.34 30.36 87.37 30.79Q86.4 31.22 85.1 31.22ZM92.94 19.02L92.94 19.02Q92.16 19.02 91.8 18.65Q91.44 18.28 91.44 17.74L91.44 17.74L91.44 17.34Q91.44 16.78 91.8 16.42Q92.16 16.06 92.94 16.06L92.94 16.06Q93.72 16.06 94.08 16.42Q94.44 16.78 94.44 17.34L94.44 17.34L94.44 17.74Q94.44 18.28 94.08 18.65Q93.72 19.02 92.94 19.02ZM94.22 30.98L91.66 30.98L91.66 20.54L94.22 20.54L94.22 30.98ZM99.72 30.98L97.16 30.98L97.16 16.18L99.72 16.18L99.72 22.26L99.8 22.26Q100.08 21.36 100.87 20.83Q101.66 20.3 102.68 20.3L102.68 20.3Q104.02 20.3 104.92 20.94Q105.82 21.58 106.3 22.79Q106.78 24 106.78 25.74L106.78 25.74Q106.78 27.48 106.3 28.71Q105.82 29.94 104.92 30.58Q104.02 31.22 102.68 31.22L102.68 31.22Q101.66 31.22 100.88 30.68Q100.1 30.14 99.8 29.24L99.8 29.24L99.72 29.24L99.72 30.98ZM101.86 29.1L101.86 29.1Q102.86 29.1 103.48 28.43Q104.1 27.76 104.1 26.66L104.1 26.66L104.1 24.86Q104.1 23.74 103.48 23.07Q102.86 22.4 101.86 22.4L101.86 22.4Q101.26 22.4 100.77 22.61Q100.28 22.82 100 23.2Q99.72 23.58 99.72 24.08L99.72 24.08L99.72 27.4Q99.72 27.94 100 28.32Q100.28 28.7 100.77 28.9Q101.26 29.1 101.86 29.1ZM113.1 28.94L113.1 30.98L111.72 30.98Q110.42 30.98 109.79 30.32Q109.16 29.66 109.16 28.46L109.16 28.46L109.16 16.18L111.72 16.18L111.72 28.94L113.1 28.94ZM119.26 31.22L119.26 31.22Q117.72 31.22 116.62 30.55Q115.52 29.88 114.93 28.65Q114.34 27.42 114.34 25.74L114.34 25.74Q114.34 24.1 114.92 22.87Q115.5 21.64 116.58 20.97Q117.66 20.3 119.18 20.3L119.18 20.3Q120.82 20.3 121.87 21.02Q122.92 21.74 123.43 22.93Q123.94 24.12 123.94 25.56L123.94 25.56L123.94 26.4L117 26.4L117 26.66Q117 27.78 117.64 28.48Q118.28 29.18 119.54 29.18L119.54 29.18Q120.48 29.18 121.1 28.77Q121.72 28.36 122.2 27.76L122.2 27.76L123.58 29.3Q122.94 30.16 121.83 30.69Q120.72 31.22 119.26 31.22ZM119.22 22.22L119.22 22.22Q118.54 22.22 118.04 22.53Q117.54 22.84 117.27 23.39Q117 23.94 117 24.66L117 24.66L117 24.82L121.28 24.82L121.28 24.64Q121.28 23.9 121.04 23.37Q120.8 22.84 120.34 22.53Q119.88 22.22 119.22 22.22Z" fill="#1F2933"/>
</svg>
