<svg xmlns="http://www.w3.org/2000/svg" width="248" height="48" viewBox="0 0 248 48" role="img" aria-label="Formateur de code">
  <title>Formateur de code</title>
  <rect width="248" height="48" rx="24" fill="#F1F3F5"/>
  <svg x="15" y="9" width="30" height="30" viewBox="0 0 24 24" fill="none" stroke="#1F2933" stroke-width="2" stroke-linecap="round" stroke-linejoin="round">
    <path stroke="none" d="M0 0h24v24H0z" fill="none" />
    <path d="M6 21l15 -15l-3 -3l-15 15l3 3" />
    <path d="M15 6l3 3" />
    <path d="M9 3a2 2 0 0 0 2 2a2 2 0 0 0 -2 2a2 2 0 0 0 -2 -2a2 2 0 0 0 2 -2" />
    <path d="M19 13a2 2 0 0 0 2 2a2 2 0 0 0 -2 2a2 2 0 0 0 -2 -2a2 2 0 0 0 2 -2" />
  </svg>
  <path d="M59.28 25.08L59.28 30.98L56.64 30.98L56.64 17.02L65.62 17.02L65.62 19.36L59.28 19.36L59.28 22.76L64.8 22.76L64.8 25.08L59.28 25.08ZM72.16 31.22L72.16 31.22Q70.68 31.22 69.59 30.55Q68.5 29.88 67.91 28.65Q67.32 27.42 67.32 25.74L67.32 25.74Q67.32 24.06 67.91 22.85Q68.5 21.64 69.59 20.97Q70.68 20.3 72.16 20.3L72.16 20.3Q73.66 20.3 74.75 20.97Q75.84 21.64 76.43 22.85Q77.02 24.06 77.02 25.74L77.02 25.74Q77.02 27.42 76.43 28.65Q75.84 29.88 74.75 30.55Q73.66 31.22 72.16 31.22ZM72.16 29.16L72.16 29.16Q73.18 29.16 73.76 28.53Q74.34 27.9 74.34 26.72L74.34 26.72L74.34 24.78Q74.34 23.6 73.76 22.98Q73.18 22.36 72.16 22.36L72.16 22.36Q71.18 22.36 70.59 22.98Q70 23.6 70 24.78L70 24.78L70 26.72Q70 27.9 70.59 28.53Q71.18 29.16 72.16 29.16ZM81.84 24.58L81.84 30.98L79.28 30.98L79.28 20.54L81.84 20.54L81.84 22.7L81.94 22.7Q82.08 22.14 82.41 21.65Q82.74 21.16 83.31 20.85Q83.88 20.54 84.7 20.54L84.7 20.54L85.26 20.54L85.26 22.96L84.46 22.96Q83.6 22.96 83.01 23.13Q82.42 23.3 82.13 23.65Q81.84 24 81.84 24.58L81.84 24.58ZM89.7 24.08L89.7 30.98L87.14 30.98L87.14 20.54L89.7 20.54L89.7 22.28L89.8 22.28Q90.1 21.46 90.77 20.88Q91.44 20.3 92.6 20.3L92.6 20.3Q93.68 20.3 94.47 20.82Q95.26 21.34 95.62 22.4L95.62 22.4L95.66 22.4Q95.94 21.54 96.78 20.92Q97.62 20.3 98.86 20.3L98.86 20.3Q100.38 20.3 101.22 21.37Q102.06 22.44 102.06 24.38L102.06 24.38L102.06 30.98L99.5 30.98L99.5 24.64Q99.5 23.52 99.09 22.96Q98.68 22.4 97.82 22.4L97.82 22.4Q97.32 22.4 96.87 22.59Q96.42 22.78 96.15 23.15Q95.88 23.52 95.88 24.08L95.88 24.08L95.88 30.98L93.32 30.98L93.32 24.64Q93.32 23.52 92.9 22.96Q92.48 22.4 91.64 22.4L91.64 22.4Q91.16 22.4 90.71 22.59Q90.26 22.78 89.98 23.15Q89.7 23.52 89.7 24.08L89.7 24.08ZM114 28.94L114 30.98L112.58 30.98Q112 30.98 111.55 30.71Q111.1 30.44 110.86 29.92L110.86 29.92Q110.68 29.58 110.64 29.18L110.64 29.18L110.52 29.18Q110.26 30.18 109.45 30.7Q108.64 31.22 107.48 31.22L107.48 31.22Q105.88 31.22 105.02 30.37Q104.16 29.52 104.16 28.14L104.16 28.14Q104.16 27.06 104.69 26.36Q105.22 25.66 106.22 25.3Q107.22 24.94 108.62 24.94L108.62 24.94L110.4 24.94L110.4 24.18Q110.4 23.32 109.94 22.83Q109.48 22.34 108.46 22.34L108.46 22.34Q107.56 22.34 107.01 22.73Q106.46 23.12 106.08 23.66L106.08 23.66L104.56 22.3Q105.14 21.4 106.1 20.85Q107.06 20.3 108.64 20.3L108.64 20.3Q110.74 20.3 111.85 21.27Q112.96 22.24 112.96 24.02L112.96 24.02L112.96 28.94L114 28.94ZM110.4 27.86L110.4 26.48L108.76 26.48Q107.76 26.48 107.26 26.81Q106.76 27.14 106.76 27.76L106.76 27.76L106.76 28.1Q106.76 28.72 107.18 29.04Q107.6 29.36 108.34 29.36L108.34 29.36Q108.92 29.36 109.38 29.19Q109.84 29.02 110.12 28.68Q110.4 28.34 110.4 27.86L110.4 27.86ZM121.18 28.94L121.18 30.98L119.34 30.98Q118.02 30.98 117.33 30.29Q116.64 29.6 116.64 28.32L116.64 28.32L116.64 22.56L115.1 22.56L115.1 20.54L115.9 20.54Q116.48 20.54 116.69 20.27Q116.9 20 116.9 19.46L116.9 19.46L116.9 17.68L119.2 17.68L119.2 20.54L121.34 20.54L121.34 22.56L119.2 22.56L119.2 28.94L121.18 28.94ZM127.78 31.22L127.78 31.22Q126.24 31.22 125.14 30.55Q124.04 29.88 123.45 28.65Q122.86 27.42 122.86 25.74L122.86 25.74Q122.86 24.1 123.44 22.87Q124.02 21.64 125.1 20.97Q126.18 20.3 127.7 20.3L127.7 20.3Q129.34 20.3 130.39 21.02Q131.44 21.74 131.95 22.93Q132.46 24.12 132.46 25.56L132.46 25.56L132.46 26.4L125.52 26.4L125.52 26.66Q125.52 27.78 126.16 28.48Q126.8 29.18 128.06 29.18L128.06 29.18Q129 29.18 129.62 28.77Q130.24 28.36 130.72 27.76L130.72 27.76L132.1 29.3Q131.46 30.16 130.35 30.69Q129.24 31.22 127.78 31.22ZM127.74 22.22L127.74 22.22Q127.06 22.22 126.56 22.53Q126.06 22.84 125.79 23.39Q125.52 23.94 125.52 24.66L125.52 24.66L125.52 24.82L129.8 24.82L129.8 24.64Q129.8 23.9 129.56 23.37Q129.32 22.84 128.86 22.53Q128.4 22.22 127.74 22.22ZM143.52 30.98L140.96 30.98L140.96 29.24L140.86 29.24Q140.6 30.02 139.92 30.62Q139.24 31.22 137.94 31.22L137.94 31.22Q136.34 31.22 135.47 30.15Q134.6 29.08 134.6 27.14L134.6 27.14L134.6 20.54L137.16 20.54L137.16 26.88Q137.16 27.96 137.58 28.53Q138 29.1 138.92 29.1L138.92 29.1Q139.42 29.1 139.89 28.92Q140.36 28.74 140.66 28.37Q140.96 28 140.96 27.44L140.96 27.44L140.96 20.54L143.52 20.54L143.52 30.98ZM149.04 24.58L149.04 30.98L146.48 30.98L146.48 20.54L149.04 20.54L149.04 22.7L149.14 22.7Q149.28 22.14 149.61 21.65Q149.94 21.16 150.51 20.85Q151.08 20.54 151.9 20.54L151.9 20.54L152.46 20.54L152.46 22.96L151.66 22.96Q150.8 22.96 150.21 23.13Q149.62 23.3 149.33 23.65Q149.04 24 149.04 24.58L149.04 24.58ZM168.1 30.98L165.54 30.98L165.54 29.24L165.44 29.24Q165.16 30.14 164.38 30.68Q163.6 31.22 162.56 31.22L162.56 31.22Q161.26 31.22 160.35 30.58Q159.44 29.94 158.96 28.71Q158.48 27.48 158.48 25.74L158.48 25.74Q158.48 24 158.96 22.79Q159.44 21.58 160.35 20.94Q161.26 20.3 162.56 20.3L162.56 20.3Q163.6 20.3 164.39 20.83Q165.18 21.36 165.44 22.26L165.44 22.26L165.54 22.26L165.54 16.18L168.1 16.18L168.1 30.98ZM163.38 29.1L163.38 29.1Q164 29.1 164.49 28.9Q164.98 28.7 165.26 28.32Q165.54 27.94 165.54 27.4L165.54 27.4L165.54 24.08Q165.54 23.58 165.26 23.2Q164.98 22.82 164.49 22.61Q164 22.4 163.38 22.4L163.38 22.4Q162.4 22.4 161.78 23.07Q161.16 23.74 161.16 24.86L161.16 24.86L161.16 26.66Q161.16 27.76 161.78 28.43Q162.4 29.1 163.38 29.1ZM175.28 31.22L175.28 31.22Q173.74 31.22 172.64 30.55Q171.54 29.88 170.95 28.65Q170.36 27.42 170.36 25.74L170.36 25.74Q170.36 24.1 170.94 22.87Q171.52 21.64 172.6 20.97Q173.68 20.3 175.2 20.3L175.2 20.3Q176.84 20.3 177.89 21.02Q178.94 21.74 179.45 22.93Q179.96 24.12 179.96 25.56L179.96 25.56L179.96 26.4L173.02 26.4L173.02 26.66Q173.02 27.78 173.66 28.48Q174.3 29.18 175.56 29.18L175.56 29.18Q176.5 29.18 177.12 28.77Q177.74 28.36 178.22 27.76L178.22 27.76L179.6 29.3Q178.96 30.16 177.85 30.69Q176.74 31.22 175.28 31.22ZM175.24 22.22L175.24 22.22Q174.56 22.22 174.06 22.53Q173.56 22.84 173.29 23.39Q173.02 23.94 173.02 24.66L173.02 24.66L173.02 24.82L177.3 24.82L177.3 24.64Q177.3 23.9 177.06 23.37Q176.82 22.84 176.36 22.53Q175.9 22.22 175.24 22.22ZM191.06 31.22L191.06 31.22Q188.74 31.22 187.49 29.74Q186.24 28.26 186.24 25.74L186.24 25.74Q186.24 23.24 187.49 21.77Q188.74 20.3 191.06 20.3L191.06 20.3Q192.64 20.3 193.67 21Q194.7 21.7 195.16 22.94L195.16 22.94L193.06 23.88Q192.88 23.22 192.38 22.79Q191.88 22.36 191.06 22.36L191.06 22.36Q190 22.36 189.46 23.03Q188.92 23.7 188.92 24.82L188.92 24.82L188.92 26.72Q188.92 27.8 189.46 28.48Q190 29.16 191.06 29.16L191.06 29.16Q191.96 29.16 192.47 28.69Q192.98 28.22 193.26 27.52L193.26 27.52L195.22 28.46Q194.72 29.84 193.65 30.53Q192.58 31.22 191.06 31.22ZM201.34 31.22L201.34 31.22Q199.86 31.22 198.77 30.55Q197.68 29.88 197.09 28.65Q196.5 27.42 196.5 25.74L196.5 25.74Q196.5 24.06 197.09 22.85Q197.68 21.64 198.77 20.97Q199.86 20.3 201.34 20.3L201.34 20.3Q202.84 20.3 203.93 20.97Q205.02 21.64 205.61 22.85Q206.2 24.06 206.2 25.74L206.2 25.74Q206.2 27.42 205.61 28.65Q205.02 29.88 203.93 30.55Q202.84 31.22 201.34 31.22ZM201.34 29.16L201.34 29.16Q202.36 29.16 202.94 28.53Q203.52 27.9 203.52 26.72L203.52 26.72L203.52 24.78Q203.52 23.6 202.94 22.98Q202.36 22.36 201.34 22.36L201.34 22.36Q200.36 22.36 199.77 22.98Q199.18 23.6 199.18 24.78L199.18 24.78L199.18 26.72Q199.18 27.9 199.77 28.53Q200.36 29.16 201.34 29.16ZM217.5 30.98L214.94 30.98L214.94 29.24L214.84 29.24Q214.56 30.14 213.78 30.68Q213 31.22 211.96 31.22L211.96 31.22Q210.66 31.22 209.75 30.58Q208.84 29.94 208.36 28.71Q207.88 27.48 207.88 25.74L207.88 25.74Q207.88 24 208.36 22.79Q208.84 21.58 209.75 20.94Q210.66 20.3 211.96 20.3L211.96 20.3Q213 20.3 213.79 20.83Q214.58 21.36 214.84 22.26L214.84 22.26L214.94 22.26L214.94 16.18L217.5 16.18L217.5 30.98ZM212.78 29.1L212.78 29.1Q213.4 29.1 213.89 28.9Q214.38 28.7 214.66 28.32Q214.94 27.94 214.94 27.4L214.94 27.4L214.94 24.08Q214.94 23.58 214.66 23.2Q214.38 22.82 213.89 22.61Q213.4 22.4 212.78 22.4L212.78 22.4Q211.8 22.4 211.18 23.07Q210.56 23.74 210.56 24.86L210.56 24.86L210.56 26.66Q210.56 27.76 211.18 28.43Q211.8 29.1 212.78 29.1ZM224.68 31.22L224.68 31.22Q223.14 31.22 222.04 30.55Q220.94 29.88 220.35 28.65Q219.76 27.42 219.76 25.74L219.76 25.74Q219.76 24.1 220.34 22.87Q220.92 21.64 222 20.97Q223.08 20.3 224.6 20.3L224.6 20.3Q226.24 20.3 227.29 21.02Q228.34 21.74 228.85 22.93Q229.36 24.12 229.36 25.56L229.36 25.56L229.36 26.4L222.42 26.4L222.42 26.66Q222.42 27.78 223.06 28.48Q223.7 29.18 224.96 29.18L224.96 29.18Q225.9 29.18 226.52 28.77Q227.14 28.36 227.62 27.76L227.62 27.76L229 29.3Q228.36 30.16 227.25 30.69Q226.14 31.22 224.68 31.22ZM224.64 22.22L224.64 22.22Q223.96 22.22 223.46 22.53Q222.96 22.84 222.69 23.39Q222.42 23.94 222.42 24.66L222.42 24.66L222.42 24.82L226.7 24.82L226.7 24.64Q226.7 23.9 226.46 23.37Q226.22 22.84 225.76 22.53Q225.3 22.22 224.64 22.22Z" fill="#1F2933"/>
</svg>
