<svg xmlns="http://www.w3.org/2000/svg" width="127" height="48" viewBox="0 0 127 48" role="img" aria-label="Kafka">
  <title>Kafka</title>
  <rect width="127" height="48" rx="24" fill="#f0eff0"/>
  <svg x="15" y="9" width="30" height="30" viewBox="0 0 24 24" fill="#231F20">
    <path d="M9.71 2.136a1.43 1.43 0 0 0-2.047 0h-.007a1.48 1.48 0 0 0-.421 1.042c0 .41.161.777.422 1.039l.007.007c.257.264.616.426 1.019.426.404 0 .766-.162 1.027-.426l.003-.007c.261-.262.421-.629.421-1.039 0-.408-.159-.777-.421-1.042H9.71zM8.683 22.295c.404 0 .766-.167 1.027-.429l.003-.008c.261-.261.421-.631.421-1.036 0-.41-.159-.778-.421-1.044H9.71a1.42 1.42 0 0 0-1.027-.432 1.4 1.4 0 0 0-1.02.432h-.007c-.26.266-.422.634-.422 1.044 0 .406.161.775.422 1.036l.007.008c.258.262.617.429 1.02.429zm7.89-4.462c.359-.096.683-.33.882-.684l.027-.052a1.47 1.47 0 0 0 .114-1.067 1.454 1.454 0 0 0-.675-.896l-.021-.014a1.425 1.425 0 0 0-1.078-.132c-.36.091-.684.335-.881.686-.2.349-.241.75-.146 1.119.099.363.33.691.675.896h.002c.346.203.737.239 1.101.144zm-6.405-7.342a2.083 2.083 0 0 0-1.485-.627c-.58 0-1.103.242-1.482.627-.378.385-.612.916-.612 1.507s.233 1.124.612 1.514a2.08 2.08 0 0 0 2.967 0c.379-.39.612-.923.612-1.514s-.233-1.122-.612-1.507zm-.835-2.51c.843.141 1.6.552 2.178 1.144h.004c.092.093.182.196.265.299l1.446-.851a3.176 3.176 0 0 1-.047-1.808 3.149 3.149 0 0 1 1.456-1.926l.025-.016a3.062 3.062 0 0 1 2.345-.306c.77.21 1.465.721 1.898 1.482v.002c.431.757.518 1.626.313 2.408a3.145 3.145 0 0 1-1.456 1.928l-.198.118h-.02a3.095 3.095 0 0 1-2.154.201 3.127 3.127 0 0 1-1.514-.944l-1.444.848a4.162 4.162 0 0 1 0 2.879l1.444.846c.413-.47.939-.789 1.514-.944a3.041 3.041 0 0 1 2.371.319l.048.023v.002a3.17 3.17 0 0 1 1.408 1.906 3.215 3.215 0 0 1-.313 2.405l-.026.053-.003-.005a3.147 3.147 0 0 1-1.867 1.436 3.096 3.096 0 0 1-2.371-.318v-.006a3.156 3.156 0 0 1-1.456-1.927 3.175 3.175 0 0 1 .047-1.805l-1.446-.848a3.905 3.905 0 0 1-.265.294l-.004.005a3.938 3.938 0 0 1-2.178 1.138v1.699a3.09 3.09 0 0 1 1.56.862l.002.004c.565.572.914 1.368.914 2.243 0 .873-.35 1.664-.914 2.239l-.002.009a3.1 3.1 0 0 1-2.21.931 3.1 3.1 0 0 1-2.206-.93h-.002v-.009a3.186 3.186 0 0 1-.916-2.239c0-.875.35-1.672.916-2.243v-.004h.002a3.1 3.1 0 0 1 1.558-.862v-1.699a3.926 3.926 0 0 1-2.176-1.138l-.006-.005a4.098 4.098 0 0 1-1.173-2.874c0-1.122.452-2.136 1.173-2.872h.006a3.947 3.947 0 0 1 2.176-1.144V6.289a3.137 3.137 0 0 1-1.558-.864h-.002v-.004a3.192 3.192 0 0 1-.916-2.243c0-.871.35-1.669.916-2.243l.002-.002A3.084 3.084 0 0 1 8.683 0c.861 0 1.641.355 2.21.932v.002h.002c.565.574.914 1.372.914 2.243 0 .876-.35 1.667-.914 2.243l-.002.005a3.142 3.142 0 0 1-1.56.864v1.692zm8.121-1.129l-.012-.019a1.452 1.452 0 0 0-.87-.668 1.43 1.43 0 0 0-1.103.146h.002c-.347.2-.58.529-.677.896-.095.365-.054.768.146 1.119l.007.009c.2.347.519.579.874.673.357.103.755.059 1.098-.144l.019-.009a1.47 1.47 0 0 0 .657-.885 1.493 1.493 0 0 0-.141-1.118"/>
  </svg>
  <path d="M68.26 30.98L65.12 30.98L61.14 24.66L59.28 26.86L59.28 30.98L56.64 30.98L56.64 17.02L59.28 17.02L59.28 23.9L59.38 23.9L61.36 21.28L64.82 17.02L67.86 17.02L63 22.84L68.26 30.98M79.14 28.94L79.14 30.98L77.72 30.98Q77.14 30.98 76.69 30.71Q76.24 30.44 76 29.92L76 29.92Q75.82 29.58 75.78 29.18L75.78 29.18L75.66 29.18Q75.4 30.18 74.59 30.7Q73.78 31.22 72.62 31.22L72.62 31.22Q71.02 31.22 70.16 30.37Q69.3 29.52 69.3 28.14L69.3 28.14Q69.3 27.06 69.83 26.36Q70.36 25.66 71.36 25.3Q72.36 24.94 73.76 24.94L73.76 24.94L75.54 24.94L75.54 24.18Q75.54 23.32 75.08 22.83Q74.62 22.34 73.6 22.34L73.6 22.34Q72.7 22.34 72.15 22.73Q71.6 23.12 71.22 23.66L71.22 23.66L69.7 22.3Q70.28 21.4 71.24 20.85Q72.2 20.3 73.78 20.3L73.78 20.3Q75.88 20.3 76.99 21.27Q78.1 22.24 78.1 24.02L78.1 24.02L78.1 28.94L79.14 28.94M75.54 27.86L75.54 26.48L73.9 26.48Q72.9 26.48 72.4 26.81Q71.9 27.14 71.9 27.76L71.9 27.76L71.9 28.1Q71.9 28.72 72.32 29.04Q72.74 29.36 73.48 29.36L73.48 29.36Q74.06 29.36 74.52 29.19Q74.98 29.02 75.26 28.68Q75.54 28.34 75.54 27.86L75.54 27.86M84.3 30.98L81.74 30.98L81.74 22.56L80.2 22.56L80.2 20.54L81.74 20.54L81.74 19.04Q81.74 17.66 82.48 16.92Q83.22 16.18 84.62 16.18L84.62 16.18L86.44 16.18L86.44 18.22L84.3 18.22L84.3 20.54L86.44 20.54L86.44 22.56L84.3 22.56L84.3 30.98M90.78 30.98L88.22 30.98L88.22 16.18L90.78 16.18L90.78 25.1L90.88 25.1L92.26 23.22L94.6 20.54L97.5 20.54L93.9 24.58L97.88 30.98L94.84 30.98L92.16 26.3L90.78 27.8L90.78 30.98M108.56 28.94L108.56 30.98L107.14 30.98Q106.56 30.98 106.11 30.71Q105.66 30.44 105.42 29.92L105.42 29.92Q105.24 29.58 105.2 29.18L105.2 29.18L105.08 29.18Q104.82 30.18 104.01 30.7Q103.2 31.22 102.04 31.22L102.04 31.22Q100.44 31.22 99.58 30.37Q98.72 29.52 98.72 28.14L98.72 28.14Q98.72 27.06 99.25 26.36Q99.78 25.66 100.78 25.3Q101.78 24.94 103.18 24.94L103.18 24.94L104.96 24.94L104.96 24.18Q104.96 23.32 104.5 22.83Q104.04 22.34 103.02 22.34L103.02 22.34Q102.12 22.34 101.57 22.73Q101.02 23.12 100.64 23.66L100.64 23.66L99.12 22.3Q99.7 21.4 100.66 20.85Q101.62 20.3 103.2 20.3L103.2 20.3Q105.3 20.3 106.41 21.27Q107.52 22.24 107.52 24.02L107.52 24.02L107.52 28.94L108.56 28.94M104.96 27.86L104.96 26.48L103.32 26.48Q102.32 26.48 101.82 26.81Q101.32 27.14 101.32 27.76L101.32 27.76L101.32 28.1Q101.32 28.72 101.74 29.04Q102.16 29.36 102.9 29.36L102.9 29.36Q103.48 29.36 103.94 29.19Q104.4 29.02 104.68 28.68Q104.96 28.34 104.96 27.86L104.96 27.86" fill="#231F20"/>
</svg>
