<svg xmlns="http://www.w3.org/2000/svg" width="186" height="48" viewBox="0 0 186 48" role="img" aria-label="Prometheus">
  <title>Prometheus</title>
  <rect width="186" height="48" rx="24" fill="#fcede8"/>
  <svg x="15" y="9" width="30" height="30" viewBox="0 0 24 24" fill="#b33f22">
    <path d="M12 0C5.373 0 0 5.372 0 12c0 6.627 5.373 12 12 12s12-5.373 12-12c0-6.628-5.373-12-12-12zm0 22.46c-1.885 0-3.414-1.26-3.414-2.814h6.828c0 1.553-1.528 2.813-3.414 2.813zm5.64-3.745H6.36v-2.046h11.28v2.046zm-.04-3.098H6.391c-.037-.043-.075-.086-.111-.13-1.155-1.401-1.427-2.133-1.69-2.879-.005-.025 1.4.287 2.395.511 0 0 .513.119 1.262.255-.72-.843-1.147-1.915-1.147-3.01 0-2.406 1.845-4.508 1.18-6.207.648.053 1.34 1.367 1.387 3.422.689-.951.977-2.69.977-3.755 0-1.103.727-2.385 1.454-2.429-.648 1.069.168 1.984.894 4.256.272.854.237 2.29.447 3.201.07-1.892.395-4.652 1.595-5.605-.529 1.2.079 2.702.494 3.424.671 1.164 1.078 2.047 1.078 3.716a4.642 4.642 0 01-1.11 2.996c.792-.149 1.34-.283 1.34-.283l2.573-.502s-.374 1.538-1.81 3.019z"/>
  </svg>
  <path d="M59.28 25.66L59.28 30.98L56.64 30.98L56.64 17.02L62.92 17.02Q64.22 17.02 65.14 17.56Q66.06 18.1 66.56 19.07Q67.06 20.04 67.06 21.34L67.06 21.34Q67.06 22.64 66.56 23.61Q66.06 24.58 65.14 25.12Q64.22 25.66 62.92 25.66L62.92 25.66L59.28 25.66ZM62.68 19.32L59.28 19.32L59.28 23.38L62.68 23.38Q63.2 23.38 63.56 23.19Q63.92 23 64.12 22.65Q64.32 22.3 64.32 21.8L64.32 21.8L64.32 20.88Q64.32 20.36 64.12 20.02Q63.92 19.68 63.56 19.5Q63.2 19.32 62.68 19.32L62.68 19.32ZM71.86 24.58L71.86 30.98L69.3 30.98L69.3 20.54L71.86 20.54L71.86 22.7L71.96 22.7Q72.1 22.14 72.43 21.65Q72.76 21.16 73.33 20.85Q73.9 20.54 74.72 20.54L74.72 20.54L75.28 20.54L75.28 22.96L74.48 22.96Q73.62 22.96 73.03 23.13Q72.44 23.3 72.15 23.65Q71.86 24 71.86 24.58L71.86 24.58ZM81.3 31.22L81.3 31.22Q79.82 31.22 78.73 30.55Q77.64 29.88 77.05 28.65Q76.46 27.42 76.46 25.74L76.46 25.74Q76.46 24.06 77.05 22.85Q77.64 21.64 78.73 20.97Q79.82 20.3 81.3 20.3L81.3 20.3Q82.8 20.3 83.89 20.97Q84.98 21.64 85.57 22.85Q86.16 24.06 86.16 25.74L86.16 25.74Q86.16 27.42 85.57 28.65Q84.98 29.88 83.89 30.55Q82.8 31.22 81.3 31.22ZM81.3 29.16L81.3 29.16Q82.32 29.16 82.9 28.53Q83.48 27.9 83.48 26.72L83.48 26.72L83.48 24.78Q83.48 23.6 82.9 22.98Q82.32 22.36 81.3 22.36L81.3 22.36Q80.32 22.36 79.73 22.98Q79.14 23.6 79.14 24.78L79.14 24.78L79.14 26.72Q79.14 27.9 79.73 28.53Q80.32 29.16 81.3 29.16ZM90.98 24.08L90.98 30.98L88.42 30.98L88.42 20.54L90.98 20.54L90.98 22.28L91.08 22.28Q91.38 21.46 92.05 20.88Q92.72 20.3 93.88 20.3L93.88 20.3Q94.96 20.3 95.75 20.82Q96.54 21.34 96.9 22.4L96.9 22.4L96.94 22.4Q97.22 21.54 98.06 20.92Q98.9 20.3 100.14 20.3L100.14 20.3Q101.66 20.3 102.5 21.37Q103.34 22.44 103.34 24.38L103.34 24.38L103.34 30.98L100.78 30.98L100.78 24.64Q100.78 23.52 100.37 22.96Q99.96 22.4 99.1 22.4L99.1 22.4Q98.6 22.4 98.15 22.59Q97.7 22.78 97.43 23.15Q97.16 23.52 97.16 24.08L97.16 24.08L97.16 30.98L94.6 30.98L94.6 24.64Q94.6 23.52 94.18 22.96Q93.76 22.4 92.92 22.4L92.92 22.4Q92.44 22.4 91.99 22.59Q91.54 22.78 91.26 23.15Q90.98 23.52 90.98 24.08L90.98 24.08ZM110.4 31.22L110.4 31.22Q108.86 31.22 107.76 30.55Q106.66 29.88 106.07 28.65Q105.48 27.42 105.48 25.74L105.48 25.74Q105.48 24.1 106.06 22.87Q106.64 21.64 107.72 20.97Q108.8 20.3 110.32 20.3L110.32 20.3Q111.96 20.3 113.01 21.02Q114.06 21.74 114.57 22.93Q115.08 24.12 115.08 25.56L115.08 25.56L115.08 26.4L108.14 26.4L108.14 26.66Q108.14 27.78 108.78 28.48Q109.42 29.18 110.68 29.18L110.68 29.18Q111.62 29.18 112.24 28.77Q112.86 28.36 113.34 27.76L113.34 27.76L114.72 29.3Q114.08 30.16 112.97 30.69Q111.86 31.22 110.4 31.22ZM110.36 22.22L110.36 22.22Q109.68 22.22 109.18 22.53Q108.68 22.84 108.41 23.39Q108.14 23.94 108.14 24.66L108.14 24.66L108.14 24.82L112.42 24.82L112.42 24.64Q112.42 23.9 112.18 23.37Q111.94 22.84 111.48 22.53Q111.02 22.22 110.36 22.22ZM122.44 28.94L122.44 30.98L120.6 30.98Q119.28 30.98 118.59 30.29Q117.9 29.6 117.9 28.32L117.9 28.32L117.9 22.56L116.36 22.56L116.36 20.54L117.16 20.54Q117.74 20.54 117.95 20.27Q118.16 20 118.16 19.46L118.16 19.46L118.16 17.68L120.46 17.68L120.46 20.54L122.6 20.54L122.6 22.56L120.46 22.56L120.46 28.94L122.44 28.94ZM127.38 30.98L124.82 30.98L124.82 16.18L127.38 16.18L127.38 22.28L127.48 22.28Q127.8 21.44 128.49 20.87Q129.18 20.3 130.4 20.3L130.4 20.3Q132 20.3 132.87 21.37Q133.74 22.44 133.74 24.38L133.74 24.38L133.74 30.98L131.18 30.98L131.18 24.64Q131.18 23.54 130.78 22.97Q130.38 22.4 129.46 22.4L129.46 22.4Q128.94 22.4 128.46 22.59Q127.98 22.78 127.68 23.15Q127.38 23.52 127.38 24.08L127.38 24.08L127.38 30.98ZM140.8 31.22L140.8 31.22Q139.26 31.22 138.16 30.55Q137.06 29.88 136.47 28.65Q135.88 27.42 135.88 25.74L135.88 25.74Q135.88 24.1 136.46 22.87Q137.04 21.64 138.12 20.97Q139.2 20.3 140.72 20.3L140.72 20.3Q142.36 20.3 143.41 21.02Q144.46 21.74 144.97 22.93Q145.48 24.12 145.48 25.56L145.48 25.56L145.48 26.4L138.54 26.4L138.54 26.66Q138.54 27.78 139.18 28.48Q139.82 29.18 141.08 29.18L141.08 29.18Q142.02 29.18 142.64 28.77Q143.26 28.36 143.74 27.76L143.74 27.76L145.12 29.3Q144.48 30.16 143.37 30.69Q142.26 31.22 140.8 31.22ZM140.76 22.22L140.76 22.22Q140.08 22.22 139.58 22.53Q139.08 22.84 138.81 23.39Q138.54 23.94 138.54 24.66L138.54 24.66L138.54 24.82L142.82 24.82L142.82 24.64Q142.82 23.9 142.58 23.37Q142.34 22.84 141.88 22.53Q141.42 22.22 140.76 22.22ZM156.54 30.98L153.98 30.98L153.98 29.24L153.88 29.24Q153.62 30.02 152.94 30.62Q152.26 31.22 150.96 31.22L150.96 31.22Q149.36 31.22 148.49 30.15Q147.62 29.08 147.62 27.14L147.62 27.14L147.62 20.54L150.18 20.54L150.18 26.88Q150.18 27.96 150.6 28.53Q151.02 29.1 151.94 29.1L151.94 29.1Q152.44 29.1 152.91 28.92Q153.38 28.74 153.68 28.37Q153.98 28 153.98 27.44L153.98 27.44L153.98 20.54L156.54 20.54L156.54 30.98ZM162.92 31.22L162.92 31.22Q161.42 31.22 160.4 30.71Q159.38 30.2 158.6 29.3L158.6 29.3L160.16 27.78Q160.74 28.44 161.43 28.82Q162.12 29.2 163.02 29.2L163.02 29.2Q163.94 29.2 164.35 28.88Q164.76 28.56 164.76 28L164.76 28Q164.76 27.54 164.47 27.27Q164.18 27 163.48 26.9L163.48 26.9L162.44 26.76Q161.32 26.62 160.54 26.24Q159.76 25.86 159.36 25.2Q158.96 24.54 158.96 23.6L158.96 23.6Q158.96 22.08 160.05 21.19Q161.14 20.3 162.92 20.3L162.92 20.3Q163.94 20.3 164.67 20.49Q165.4 20.68 165.96 21.05Q166.52 21.42 167 21.94L167 21.94L165.5 23.44Q165.04 22.96 164.4 22.64Q163.76 22.32 163 22.32L163 22.32Q162.2 22.32 161.81 22.61Q161.42 22.9 161.42 23.4L161.42 23.4Q161.42 23.92 161.73 24.19Q162.04 24.46 162.78 24.58L162.78 24.58L163.84 24.72Q165.56 24.96 166.39 25.73Q167.22 26.5 167.22 27.8L167.22 27.8Q167.22 28.8 166.69 29.58Q166.16 30.36 165.19 30.79Q164.22 31.22 162.92 31.22Z" fill="#b33f22"/>
</svg>
